<?xml version="1.0" encoding="iso-8859-1"?>
<!-- Generator: Adobe Illustrator 16.0.0, SVG Export Plug-In . SVG Version: 6.00 Build 0)  -->
<!DOCTYPE svg PUBLIC "-//W3C//DTD SVG 1.1//EN" "http://www.w3.org/Graphics/SVG/1.1/DTD/svg11.dtd">
<svg version="1.1" id="Capa_1" xmlns="http://www.w3.org/2000/svg" xmlns:xlink="http://www.w3.org/1999/xlink" x="0px" y="0px"
	 width="373.648px" height="373.648px" viewBox="0 0 373.648 373.648" style="enable-background:new 0 0 373.648 373.648;"
	 xml:space="preserve">
<g>
	<g id="Artwork_24_">
		<g id="Layer_5_24_">
			<path d="M365.359,162.68L211.398,33.587c-13.516-11.333-35.633-11.333-49.148,0L8.289,162.68
				c-13.516,11.333-10.144,20.605,7.495,20.605h36.883c0,0,3.739,0.166,3.739,3.539c0,34.021,0,136.081,0,136.081
				c0,14.169,11.487,25.656,25.656,25.656h209.523c14.171,0,25.656-11.486,25.656-25.656c0,0,0-102.252,0-136.335
				c0-3.118,3.387-3.284,3.387-3.284h37.235C375.503,183.285,378.876,174.013,365.359,162.68z M251.633,253.031
				c-10.377,15.783-55.056,53.315-64.741,53.315c-9.481-0.001-54.565-37.668-64.877-53.315c-5.161-7.832-8.824-16.478-8.219-27.84
				c1.079-20.113,17.524-36.724,37.664-36.724c20.706,0.001,32.765,22.092,35.365,22.093c2.976,0,15.548-22.093,35.365-22.092
				c20.141-0.001,36.585,16.608,37.662,36.722C260.46,236.553,256.809,245.163,251.633,253.031z"/>
		</g>
	</g>
</g>
<g>
</g>
<g>
</g>
<g>
</g>
<g>
</g>
<g>
</g>
<g>
</g>
<g>
</g>
<g>
</g>
<g>
</g>
<g>
</g>
<g>
</g>
<g>
</g>
<g>
</g>
<g>
</g>
<g>
</g>
</svg>
